<svg xmlns="http://www.w3.org/2000/svg" version="1.1" xmlns:xlink="http://www.w3.org/1999/xlink" xmlns:svgjs="http://svgjs.dev/svgjs" width="400" height="200" preserveAspectRatio="none" viewBox="0 0 400 200"><g mask="url(&quot;#SvgjsMask1063&quot;)" fill="none"><path d="M248.878,151.727C263.371,152.666,279.306,148.937,286.495,136.318C293.635,123.784,288.04,108.635,280.393,96.404C273.298,85.055,262.25,76.705,248.878,76.148C234.467,75.548,219.3,80.876,212.465,93.576C205.881,105.81,211.482,120.158,218.855,131.933C225.674,142.822,236.057,150.896,248.878,151.727" fill="rgba(233, 17, 207, 0.26)" className="triangle-float3"></path><path d="M123.748,147.777C135.753,147.36,146.876,141.196,152.706,130.694C158.375,120.483,157.535,107.946,151.364,98.031C145.53,88.658,134.783,84.495,123.748,84.166C111.985,83.815,99.679,86.522,93.121,96.293C85.835,107.149,84.403,121.596,91.087,132.832C97.647,143.86,110.924,148.222,123.748,147.777" fill="rgba(233, 17, 207, 0.26)" className="triangle-float2"></path><path d="M369.582,115.726C389.423,116.009,404.748,100.502,414.702,83.336C424.696,66.101,430.589,45.068,420.522,27.876C410.534,10.818,389.339,6.899,369.582,6.281C348.288,5.615,323.305,5.969,312.804,24.505C302.376,42.911,315.461,64.119,326.64,82.079C336.94,98.626,350.093,115.448,369.582,115.726" fill="rgba(233, 17, 207, 0.26)" className="triangle-float2"></path><path d="M206.222,53.55C216.377,54.051,225.555,47.856,230.746,39.114C236.055,30.173,237.93,18.62,232.059,10.037C226.671,2.161,215.727,2.417,206.222,3.263C198.473,3.953,191.361,7.395,187.288,14.023C183,21.001,182.024,29.496,185.562,36.882C189.659,45.435,196.75,53.082,206.222,53.55" fill="rgba(233, 17, 207, 0.26)" className="triangle-float1"></path></g><defs><mask id="SvgjsMask1063"><rect width="400" height="200" fill="#ffffff"></rect></mask><style>
                @keyframes float1 {
                    0%{transform: translate(0, 0)}
                    50%{transform: translate(-10px, 0)}
                    100%{transform: translate(0, 0)}
                }

                .triangle-float1 {
                    animation: float1 5s infinite;
                }

                @keyframes float2 {
                    0%{transform: translate(0, 0)}
                    50%{transform: translate(-5px, -5px)}
                    100%{transform: translate(0, 0)}
                }

                .triangle-float2 {
                    animation: float2 4s infinite;
                }

                @keyframes float3 {
                    0%{transform: translate(0, 0)}
                    50%{transform: translate(0, -10px)}
                    100%{transform: translate(0, 0)}
                }

                .triangle-float3 {
                    animation: float3 6s infinite;
                }
            </style></defs></svg>