<svg xmlns="http://www.w3.org/2000/svg" version="1.1" xmlns:xlink="http://www.w3.org/1999/xlink" xmlns:svgjs="http://svgjs.dev/svgjs" width="400" height="200" preserveAspectRatio="none" viewBox="0 0 400 200"><g mask="url(&quot;#SvgjsMask1046&quot;)" fill="none"><path d="M332.413,139.645C337.939,139.588,342.811,136.648,345.894,132.062C349.454,126.767,352.421,120.095,349.298,114.53C346.135,108.894,338.876,108.039,332.413,108.037C325.944,108.035,318.729,108.909,315.506,114.518C312.29,120.114,314.841,126.988,318.444,132.343C321.587,137.015,326.782,139.703,332.413,139.645" fill="rgba(17, 140, 233, 0.26)" className="triangle-float2"></path><path d="M373.143,69.273C385.28,69.328,397.729,64.358,403.261,53.555C408.45,43.422,403.474,31.777,397.215,22.268C391.698,13.888,383.151,8.506,373.143,7.803C361.554,6.989,348.749,8.686,342.404,18.419C335.599,28.859,337.049,42.618,343.496,53.283C349.721,63.582,361.109,69.218,373.143,69.273" fill="rgba(17, 140, 233, 0.26)" className="triangle-float1"></path><path d="M281.827,173.146C294.955,173.308,302.968,160.119,309.09,148.505C314.683,137.894,317.697,125.873,312.426,115.098C306.48,102.941,295.358,93.007,281.827,92.768C267.954,92.523,255.245,101.448,249.299,113.984C244.023,125.108,249.77,137.058,255.702,147.847C261.961,159.232,268.836,172.986,281.827,173.146" fill="rgba(17, 140, 233, 0.26)" className="triangle-float2"></path><path d="M89.91,183.825C104.515,183.982,113.5,169.095,119.778,155.907C125.055,144.823,124.852,132.621,119.557,121.546C113.261,108.378,104.505,93.63,89.91,93.435C75.139,93.238,65.09,107.342,58.858,120.735C53.641,131.948,55.673,144.18,61.134,155.276C67.529,168.269,75.429,183.669,89.91,183.825" fill="rgba(17, 140, 233, 0.26)" className="triangle-float2"></path><path d="M380.499,84.773C386.307,84.963,391.477,81.476,394.515,76.522C397.711,71.31,399.127,64.734,396.011,59.474C392.94,54.29,386.524,52.817,380.499,52.86C374.567,52.902,368.222,54.493,365.367,59.693C362.586,64.759,364.999,70.707,367.985,75.655C370.843,80.392,374.97,84.592,380.499,84.773" fill="rgba(17, 140, 233, 0.26)" className="triangle-float1"></path><path d="M292.613,236.861C308.156,237.135,325.78,236.167,333.809,222.856C342.004,209.269,336.28,192.152,327.582,178.881C319.799,167.006,306.801,159.474,292.613,159.999C279.252,160.493,268.984,170.002,261.852,181.311C254.053,193.677,246.777,208.656,253.859,221.446C261.078,234.482,277.714,236.598,292.613,236.861" fill="rgba(17, 140, 233, 0.26)" className="triangle-float3"></path></g><defs><mask id="SvgjsMask1046"><rect width="400" height="200" fill="#ffffff"></rect></mask><style>
                @keyframes float1 {
                    0%{transform: translate(0, 0)}
                    50%{transform: translate(-10px, 0)}
                    100%{transform: translate(0, 0)}
                }

                .triangle-float1 {
                    animation: float1 5s infinite;
                }

                @keyframes float2 {
                    0%{transform: translate(0, 0)}
                    50%{transform: translate(-5px, -5px)}
                    100%{transform: translate(0, 0)}
                }

                .triangle-float2 {
                    animation: float2 4s infinite;
                }

                @keyframes float3 {
                    0%{transform: translate(0, 0)}
                    50%{transform: translate(0, -10px)}
                    100%{transform: translate(0, 0)}
                }

                .triangle-float3 {
                    animation: float3 6s infinite;
                }
            </style></defs></svg>