<svg xmlns="http://www.w3.org/2000/svg" version="1.1" xmlns:xlink="http://www.w3.org/1999/xlink" xmlns:svgjs="http://svgjs.dev/svgjs" width="250" height="200" preserveAspectRatio="none" viewBox="0 0 250 200"><g mask="url(&quot;#SvgjsMask1016&quot;)" fill="none"><path d="M209.624,22.268C215.834,22.275,219.875,16.332,222.675,10.789C225.151,5.887,225.827,0.239,223.185,-4.576C220.441,-9.577,215.328,-12.96,209.624,-13C203.853,-13.041,198.496,-9.833,195.726,-4.77C193.059,0.105,194.085,5.817,196.625,10.759C199.461,16.276,203.421,22.261,209.624,22.268" fill="rgba(109, 28, 247, 0.19)" className="triangle-float2"></path><path d="M237.583,193.302C250.348,193.312,258.275,180.75,264.158,169.421C269.466,159.2,271.935,147.527,266.672,137.283C260.947,126.14,250.11,117.856,237.583,117.699C224.812,117.539,213.028,125.171,207.2,136.536C201.809,147.049,205.504,158.963,211.079,169.38C217.098,180.626,224.827,193.292,237.583,193.302" fill="rgba(109, 28, 247, 0.19)" className="triangle-float2"></path><path d="M180.222,101.039C194.283,101.186,208.353,95.339,215.25,83.085C222.037,71.026,219.636,56.06,212.05,44.486C205.172,33.992,192.75,30.324,180.222,29.642C165.952,28.865,149.479,28.628,141.769,40.661C133.681,53.284,138.39,69.719,146.443,82.364C153.85,93.995,166.434,100.894,180.222,101.039" fill="rgba(109, 28, 247, 0.19)" className="triangle-float2"></path><path d="M220.322,164.734C231.129,164.714,239.803,156.545,244.8,146.963C249.406,138.13,248.627,127.975,244.125,119.088C239.059,109.087,231.533,98.587,220.322,98.641C209.164,98.694,201.972,109.37,196.911,119.314C192.411,128.156,191.139,138.237,195.684,147.055C200.648,156.685,209.488,164.754,220.322,164.734" fill="rgba(109, 28, 247, 0.19)" className="triangle-float3"></path></g><defs><mask id="SvgjsMask1016"><rect width="250" height="200" fill="#ffffff"></rect></mask><style>
                @keyframes float1 {
                    0%{transform: translate(0, 0)}
                    50%{transform: translate(-10px, 0)}
                    100%{transform: translate(0, 0)}
                }

                .triangle-float1 {
                    animation: float1 5s infinite;
                }

                @keyframes float2 {
                    0%{transform: translate(0, 0)}
                    50%{transform: translate(-5px, -5px)}
                    100%{transform: translate(0, 0)}
                }

                .triangle-float2 {
                    animation: float2 4s infinite;
                }

                @keyframes float3 {
                    0%{transform: translate(0, 0)}
                    50%{transform: translate(0, -10px)}
                    100%{transform: translate(0, 0)}
                }

                .triangle-float3 {
                    animation: float3 6s infinite;
                }
            </style></defs></svg>