<svg xmlns="http://www.w3.org/2000/svg" version="1.1" xmlns:xlink="http://www.w3.org/1999/xlink" xmlns:svgjs="http://svgjs.dev/svgjs" width="400" height="200" preserveAspectRatio="none" viewBox="0 0 400 200"><g mask="url(&quot;#SvgjsMask1111&quot;)" fill="none"><path d="M407.898,193.717C423.698,194.929,441.877,192.812,449.761,179.067C457.623,165.36,449.674,149.007,441.19,135.676C433.494,123.583,422.229,113.575,407.898,113.284C393.1,112.984,379.142,121.214,372.179,134.275C365.575,146.664,368.621,161.365,375.852,173.399C382.834,185.019,394.382,192.681,407.898,193.717" fill="rgba(17, 233, 43, 0.2)" className="triangle-float1"></path><path d="M146.223,168.586C162.421,168.554,171.56,151.959,179.589,137.891C187.517,124,196.361,108.141,188.754,94.072C180.914,79.572,162.702,75.761,146.223,76.18C130.593,76.577,114.742,82.403,107.278,96.142C100.077,109.397,105.483,124.738,112.626,138.025C120.309,152.317,129.997,168.618,146.223,168.586" fill="rgba(17, 233, 43, 0.2)" className="triangle-float2"></path><path d="M69.51,248.141C83.68,248.292,94.77,237.008,101.313,224.438C107.324,212.89,107.428,199.216,100.817,188.001C94.309,176.96,82.325,170.341,69.51,170.486C56.942,170.628,45.674,177.801,39.407,188.696C33.158,199.56,33.195,212.592,38.857,223.773C45.177,236.254,55.521,247.992,69.51,248.141" fill="rgba(17, 233, 43, 0.2)" className="triangle-float3"></path><path d="M338.445,56.661C350.699,57.334,363.847,54.208,370.278,43.756C376.956,32.902,375.093,18.923,368.298,8.142C361.943,-1.94,350.362,-6.589,338.445,-6.748C326.197,-6.911,313.132,-3.379,307.18,7.327C301.346,17.82,305.714,30.423,312.141,40.564C318.039,49.871,327.444,56.057,338.445,56.661" fill="rgba(17, 233, 43, 0.2)" className="triangle-float2"></path><path d="M336.828,84.947C348.201,85.164,356.242,75.114,361.79,65.184C367.166,55.562,370.608,43.997,365.01,34.502C359.476,25.116,347.724,22.908,336.828,22.842C325.781,22.776,313.481,24.537,308.053,34.159C302.684,43.676,308.077,54.755,313.464,64.262C318.96,73.962,325.681,84.734,336.828,84.947" fill="rgba(17, 233, 43, 0.2)" className="triangle-float1"></path></g><defs><mask id="SvgjsMask1111"><rect width="400" height="200" fill="#ffffff"></rect></mask><style>
                @keyframes float1 {
                    0%{transform: translate(0, 0)}
                    50%{transform: translate(-10px, 0)}
                    100%{transform: translate(0, 0)}
                }

                .triangle-float1 {
                    animation: float1 5s infinite;
                }

                @keyframes float2 {
                    0%{transform: translate(0, 0)}
                    50%{transform: translate(-5px, -5px)}
                    100%{transform: translate(0, 0)}
                }

                .triangle-float2 {
                    animation: float2 4s infinite;
                }

                @keyframes float3 {
                    0%{transform: translate(0, 0)}
                    50%{transform: translate(0, -10px)}
                    100%{transform: translate(0, 0)}
                }

                .triangle-float3 {
                    animation: float3 6s infinite;
                }
            </style></defs></svg>