<svg xmlns="http://www.w3.org/2000/svg" version="1.1" xmlns:xlink="http://www.w3.org/1999/xlink" xmlns:svgjs="http://svgjs.dev/svgjs" width="1440" height="560" preserveAspectRatio="none" viewBox="0 0 1440 560"><g mask="url(&quot;#SvgjsMask1008&quot;)" fill="none"><path d="M835.09 168.88L881.75 168.88L881.75 209.12L835.09 209.12z" stroke="rgba(211, 183, 20, 0.68)"></path><path d="M854.39 378.38L873.92 378.38L873.92 397.91L854.39 397.91z" fill="rgba(137, 169, 25, 0.68)"></path><path d="M170.8 279.74L178.83 279.74L178.83 287.77L170.8 287.77z" fill="rgba(211, 183, 20, 0.68)"></path><path d="M965.12 101.04 a30.82 30.82 0 1 0 61.64 0 a30.82 30.82 0 1 0 -61.64 0z" fill="rgba(58, 187, 195, 0.67)"></path><path d="M102.48 141.98a40.14 40.14 0 1 0-30.88-74.11z" fill="rgba(58, 187, 195, 0.67)"></path><path d="M364.93 341.63a38.88 38.88 0 1 0 4.57 77.63z" stroke="rgba(58, 187, 195, 0.67)"></path><path d="M1399.83 172.12 a9.14 9.14 0 1 0 18.28 0 a9.14 9.14 0 1 0 -18.28 0z" stroke="rgba(137, 169, 25, 0.68)"></path><path d="M413.48 418.58L442.92 418.58L442.92 439.2L413.48 439.2z" stroke="rgba(137, 169, 25, 0.68)"></path><path d="M171.94 86.72L208.43 86.72L208.43 92.66L171.94 92.66z" fill="rgba(58, 187, 195, 0.67)"></path><path d="M664.44 407.09a11 11 0 1 0-7.29 20.75z" fill="rgba(137, 169, 25, 0.68)"></path><path d="M791.85 207.92a12.05 12.05 0 1 0-20.07 13.34z" fill="rgba(211, 183, 20, 0.68)"></path><path d="M217.23 231.21L255.09 231.21L255.09 269.07L217.23 269.07z" stroke="rgba(231, 54, 53, 0.67)"></path><path d="M282.95 289.04L325.38 289.04L325.38 331.32L282.95 331.32z" fill="rgba(211, 183, 20, 0.68)"></path><path d="M1202.46 301.19a42.94 42.94 0 1 0-67.29-53.37z" fill="rgba(231, 54, 53, 0.67)"></path><path d="M263.23 270.45L269.85 270.45L269.85 277.07L263.23 277.07z" fill="rgba(137, 169, 25, 0.68)"></path><path d="M1344.69 157.01a49.62 49.62 0 1 0 87.68 46.5z" fill="rgba(58, 187, 195, 0.67)"></path><path d="M21.16 310.41L60.15 310.41L60.15 349.4L21.16 349.4z" fill="rgba(58, 187, 195, 0.67)"></path><path d="M866.37 51.42 a4.87 4.87 0 1 0 9.74 0 a4.87 4.87 0 1 0 -9.74 0z" stroke="rgba(211, 183, 20, 0.68)"></path><path d="M469.27 113.33L477.17 113.33L477.17 121.23L469.27 121.23z" fill="rgba(137, 169, 25, 0.68)"></path><path d="M705.1 319.93 a44.34 44.34 0 1 0 88.68 0 a44.34 44.34 0 1 0 -88.68 0z" stroke="rgba(231, 54, 53, 0.67)"></path><path d="M1248.69 288.73 a55.17 55.17 0 1 0 110.34 0 a55.17 55.17 0 1 0 -110.34 0z" stroke="rgba(231, 54, 53, 0.67)"></path><path d="M1171.66 389.12 a52.36 52.36 0 1 0 104.72 0 a52.36 52.36 0 1 0 -104.72 0z" stroke="rgba(137, 169, 25, 0.68)"></path><path d="M1196.1 12.2a38.59 38.59 0 1 0-41.84 64.86z" fill="rgba(231, 54, 53, 0.67)"></path><path d="M1230.64 40.76 a40.22 40.22 0 1 0 80.44 0 a40.22 40.22 0 1 0 -80.44 0z" stroke="rgba(231, 54, 53, 0.67)"></path><path d="M1416.21 488.14L1471.59 488.14L1471.59 543.52L1416.21 543.52z" fill="rgba(211, 183, 20, 0.68)"></path><path d="M88.45 483.63L119.05 483.63L119.05 531.74L88.45 531.74z" fill="rgba(231, 54, 53, 0.67)"></path><path d="M980.72 475.85a54.77 54.77 0 1 0 93.39-57.24z" stroke="rgba(231, 54, 53, 0.67)"></path><path d="M820.83 198.59L844.99 198.59L844.99 222.75L820.83 222.75z" stroke="rgba(58, 187, 195, 0.67)"></path><path d="M854.69 345.32L855.93 345.32L855.93 346.56L854.69 346.56z" fill="rgba(137, 169, 25, 0.68)"></path><path d="M179.08 512.89L210.07 512.89L210.07 543.81L179.08 543.81z" stroke="rgba(211, 183, 20, 0.68)"></path><path d="M123.05 565.7a29.17 29.17 0 1 0 27.99-51.19z" fill="rgba(137, 169, 25, 0.68)"></path><path d="M68.95 108.15a36.75 36.75 0 1 0-4.48 73.36z" stroke="rgba(137, 169, 25, 0.68)"></path><path d="M839.31 200.45 a5.24 5.24 0 1 0 10.48 0 a5.24 5.24 0 1 0 -10.48 0z" stroke="rgba(58, 187, 195, 0.67)"></path></g><defs><mask id="SvgjsMask1008"><rect width="1440" height="560" fill="#ffffff"></rect></mask></defs></svg>