<svg xmlns="http://www.w3.org/2000/svg" version="1.1" xmlns:xlink="http://www.w3.org/1999/xlink" xmlns:svgjs="http://svgjs.dev/svgjs" width="1920" height="1080" preserveAspectRatio="none" viewBox="0 0 1920 1080"><g mask="url(&quot;#SvgjsMask17219&quot;)" fill="none"><rect width="583.8" height="583.8" clip-path="url(&quot;#SvgjsClipPath17220&quot;)" x="1072.52" y="282.63" fill="url(&quot;#SvgjsPattern17221&quot;)" transform="rotate(114.04, 1364.42, 574.53)"></rect><path d="M357.84 35.85L353.61 47.94 340.89 46.47 336.66 58.55 323.94 57.08 319.71 69.17 306.99 67.69M353.6 29.07L349.37 41.16 336.65 39.69 332.42 51.77 319.7 50.3 315.46 62.39 302.74 60.91M349.35 22.29L345.12 34.38 332.4 32.91 328.17 44.99 315.45 43.52 311.22 55.61 298.5 54.13" stroke="rgba(255, 227, 60, 1)" stroke-width="1" stroke-dasharray="2, 2"></path><path d="M1751.83 42.97a5.6 5.6 0 1 0 7.8 8.04 5.6 5.6 0 1 0-7.8-8.04zM1762.97 54.46a5.6 5.6 0 1 0 7.8 8.04 5.6 5.6 0 1 0-7.8-8.04zM1774.11 65.94a5.6 5.6 0 1 0 7.8 8.05 5.6 5.6 0 1 0-7.8-8.05zM1785.25 77.43a5.6 5.6 0 1 0 7.8 8.04 5.6 5.6 0 1 0-7.8-8.04zM1718.07 31.14a5.6 5.6 0 1 0 7.8 8.04 5.6 5.6 0 1 0-7.8-8.04zM1729.21 42.62a5.6 5.6 0 1 0 7.8 8.05 5.6 5.6 0 1 0-7.8-8.05zM1740.35 54.11a5.6 5.6 0 1 0 7.79 8.04 5.6 5.6 0 1 0-7.79-8.04zM1751.49 65.6a5.6 5.6 0 1 0 7.79 8.04 5.6 5.6 0 1 0-7.79-8.04zM1684.31 19.31a5.6 5.6 0 1 0 7.79 8.04 5.6 5.6 0 1 0-7.79-8.04zM1695.45 30.79a5.6 5.6 0 1 0 7.79 8.04 5.6 5.6 0 1 0-7.79-8.04zM1706.58 42.28a5.6 5.6 0 1 0 7.8 8.04 5.6 5.6 0 1 0-7.8-8.04zM1717.72 53.76a5.6 5.6 0 1 0 7.8 8.04 5.6 5.6 0 1 0-7.8-8.04z" fill="rgba(239, 85, 84, 1)"></path><path d="M1848.89 386.28 L1811.9 250.59L1775.0517255267057 373.7782744732942z" fill="rgba(74, 140, 249, 1)"></path><rect width="264" height="264" clip-path="url(&quot;#SvgjsClipPath17222&quot;)" x="294.58" y="-10.82" fill="url(&quot;#SvgjsPattern17223&quot;)" transform="rotate(126.48, 426.58, 121.18)"></rect><rect width="124.80000000000001" height="124.80000000000001" clip-path="url(&quot;#SvgjsClipPath17224&quot;)" x="1157.02" y="401.81" fill="url(&quot;#SvgjsPattern17225&quot;)" transform="rotate(309.4, 1219.42, 464.21)"></rect><path d="M1574.3600000000001 1056.55 L1460.98 1220.24L1644.7033256239388 1265.4283256239387z" fill="rgba(239, 85, 84, 1)"></path><rect width="624.24" height="624.24" clip-path="url(&quot;#SvgjsClipPath17226&quot;)" x="516.07" y="584.78" fill="url(&quot;#SvgjsPattern17227&quot;)" transform="rotate(301.35, 828.19, 896.9)"></rect></g><defs><mask id="SvgjsMask17219"><rect width="1920" height="1080" fill="#ffffff"></rect></mask><pattern x="0" y="0" width="583.8" height="8.34" patternUnits="userSpaceOnUse" id="SvgjsPattern17221"><rect width="583.8" height="4.17" x="0" y="0" fill="rgba(255, 227, 60, 1)"></rect><rect width="583.8" height="4.17" x="0" y="4.17" fill="rgba(0, 0, 0, 0)"></rect></pattern><clipPath id="SvgjsClipPath17220"><circle r="145.95" cx="1364.42" cy="574.53"></circle></clipPath><pattern x="0" y="0" width="6" height="6" patternUnits="userSpaceOnUse" id="SvgjsPattern17223"><path d="M0 6L3 0L6 6" stroke="rgba(239, 85, 84, 1)" fill="none"></path></pattern><clipPath id="SvgjsClipPath17222"><circle r="66" cx="426.58" cy="121.18"></circle></clipPath><pattern x="0" y="0" width="12.48" height="12.48" patternUnits="userSpaceOnUse" id="SvgjsPattern17225"><path d="M0 12.48L6.24 0L12.48 12.48" stroke="rgba(74, 140, 249, 1)" fill="none"></path></pattern><clipPath id="SvgjsClipPath17224"><circle r="31.200000000000003" cx="1219.42" cy="464.21"></circle></clipPath><pattern x="0" y="0" width="6.12" height="6.12" patternUnits="userSpaceOnUse" id="SvgjsPattern17227"><path d="M3.06 1L3.06 5.12M1 3.06L5.12 3.06" stroke="rgba(61, 183, 69, 1)" fill="none" stroke-width="1"></path></pattern><clipPath id="SvgjsClipPath17226"><circle r="156.06" cx="828.19" cy="896.9"></circle></clipPath></defs></svg>